<?xml version="1.0" encoding="utf-8"?>
<!-- Generator: Adobe Illustrator 25.4.1, SVG Export Plug-In . SVG Version: 6.00 Build 0)  -->
<svg version="1.1" xmlns="http://www.w3.org/2000/svg" xmlns:xlink="http://www.w3.org/1999/xlink" x="0px" y="0px"
	 viewBox="0 0 450 500" style="enable-background:new 0 0 450 500;" xml:space="preserve">
<g id="Layer_1">
	<g>
		<g>
			<path d="M133.24,277.52c-23.49-22.1-32.96-56.48-27.39-87.89c5.8-32.66,28.36-59.64,57.48-74.67
				c30.78-15.88,67.98-17.66,99.87-3.84c16.09,6.97,30.51,17.83,40.91,32.01c10.25,13.97,16.82,30.77,18.12,48.09
				c1.24,16.6-2.57,33.11-11.18,47.37c-8.23,13.64-20.47,24.93-35.1,31.36c-3.58,1.58-7.31,2.81-11.11,3.75
				c-1.02,0.25-1.28,1.36-0.9,2.2c9.87,21.69,18.14,44.09,24.75,66.99c6.58,22.81,11.52,46.09,14.75,69.61
				c1.84,13.4,3.09,26.88,3.81,40.38c0.1,1.92,3.1,1.93,3,0c-1.27-23.95-4.29-47.8-9.02-71.31c-4.77-23.7-11.28-47.04-19.47-69.79
				c-4.56-12.67-9.65-25.14-15.23-37.39c-0.3,0.73-0.6,1.47-0.9,2.2c32.6-8.1,56.62-38.66,59.51-71.7
				c3.18-36.35-17.19-71.66-48.09-90.06c-30.97-18.44-70.05-20.9-103.45-7.8c-31.37,12.3-58.09,37.7-67.94,70.41
				c-9.46,31.39-3.48,67.57,17.18,93.28c2.54,3.16,5.31,6.14,8.26,8.92C132.53,280.97,134.65,278.85,133.24,277.52L133.24,277.52z"
				/>
		</g>
	</g>
	<g>
		<g>
			<path d="M130.36,283.61c-10.03,22.16-18.52,45.02-25.35,68.37c-6.84,23.37-12.04,47.22-15.53,71.32
				c-1.97,13.56-3.4,27.18-4.3,40.85c-0.13,1.93,2.87,1.92,3,0c1.58-24.17,4.87-48.21,9.83-71.92
				c4.93-23.53,11.49-46.72,19.63-69.34c4.6-12.78,9.71-25.38,15.31-37.76C133.74,283.37,131.16,281.85,130.36,283.61L130.36,283.61
				z"/>
		</g>
	</g>
	<g>
		<g>
			<path d="M164.66,147.86c-7.32,0.94-11.8,7.28-14.61,13.57c-3.14,7.01-6.07,16.02-0.77,22.78c5.13,6.54,14.42,4.3,19.38-1.2
				c2.77-3.07,4.53-6.83,6.15-10.59c1.8-4.17,3.69-8.46,3.91-13.06c0.2-4.21-1.28-8.14-4.66-10.74c-2.92-2.24-6.92-3.08-10.16-1
				c-1.62,1.04-0.12,3.64,1.51,2.59c2.23-1.43,4.87-0.75,6.87,0.8c2.5,1.94,3.52,4.8,3.45,7.9c-0.08,3.76-1.56,7.39-3,10.8
				c-1.37,3.22-2.75,6.49-4.76,9.37c-1.88,2.7-4.44,4.93-7.64,5.83c-2.82,0.8-5.86,0.37-8-1.75c-5.12-5.07-2.64-13.02-0.3-18.77
				c2.24-5.52,6.03-12.67,12.63-13.52C166.55,150.61,166.57,147.61,164.66,147.86L164.66,147.86z"/>
		</g>
	</g>
	<g>
		<g>
			<path d="M205,157.31c-7.05,3.19-12.92,9.02-16.09,16.09c-2.76,6.14-3.76,14.28,0.54,20.01c5.09,6.78,14.61,5.56,20.55,0.67
				c3.26-2.68,5.63-6.33,7.6-10.03c2.11-3.96,4.02-8.17,4.59-12.67c0.57-4.56-0.55-9.15-3.93-12.4c-2.85-2.74-7.07-4.27-10.89-2.7
				c-1.76,0.72-0.99,3.63,0.8,2.89c2.8-1.15,5.69-0.2,7.84,1.81c2.57,2.4,3.51,5.62,3.3,9.07c-0.24,4.01-1.93,7.85-3.74,11.38
				c-1.62,3.16-3.44,6.29-5.92,8.86c-4.43,4.58-12.82,7.45-17.57,1.65c-3.71-4.53-2.92-11.5-0.82-16.53
				c2.88-6.9,8.45-12.45,15.24-15.52C208.27,159.11,206.74,156.52,205,157.31L205,157.31z"/>
		</g>
	</g>
	<g>
		<g>
			<path d="M159.29,161.87c-3.67,1.73-5.1,6.74-3.11,10.22c0.42,0.74,1.33,0.89,2.05,0.54c3.64-1.79,5.57-6.02,4.87-9.95
				c-0.13-0.73-1.14-1.34-1.85-1.05c-1.33,0.55-2.43,1.42-3.18,2.68c-0.34,0.58-0.61,1.24-0.75,1.9c-0.14,0.71-0.31,1.79,0.08,2.45
				c0.46,0.78,1.51,1,2.33,0.81c0.66-0.16,1.25-0.67,1.6-1.24c0.76-1.2,0.58-2.82-0.7-3.58c-0.67-0.4-1.68-0.17-2.05,0.54
				c-0.38,0.72-0.18,1.62,0.54,2.05c0.13,0.08,0.1,0.05-0.11-0.1c-0.15-0.21-0.18-0.26-0.1-0.13c-0.09-0.25-0.12-0.31-0.08-0.16
				c-0.03-0.28-0.04-0.34-0.03-0.18c0,0.24,0.12-0.4,0-0.03c-0.07,0.22,0.21-0.31-0.01,0c-0.14,0.2,0.28-0.24-0.01,0.01
				c-0.19,0.16,0.34-0.17,0-0.01c0.25-0.1,0.3-0.12,0.16-0.07c0.28-0.03,0.35-0.04,0.19-0.03c0.28,0.05,0.34,0.06,0.19,0.02
				c0.24,0.11,0.29,0.13,0.15,0.05c0.25,0.43,0.5,0.86,0.74,1.3c-0.02-0.24-0.03-0.47-0.01-0.71c0-0.04,0.01-0.08,0.01-0.12
				c0.02-0.17,0.02-0.16-0.01,0.05c-0.02-0.08,0.04-0.21,0.06-0.29c0.05-0.21,0.13-0.41,0.19-0.62c-0.1,0.33,0.01-0.01,0.04-0.08
				c0.05-0.11,0.11-0.21,0.17-0.31c0.06-0.1,0.13-0.2,0.19-0.3c0.15-0.24-0.1,0.1,0.02-0.03c0.15-0.16,0.29-0.33,0.45-0.47
				c0.09-0.08,0.18-0.16,0.27-0.23c-0.28,0.22,0.03-0.01,0.08-0.04c0.1-0.06,0.2-0.12,0.31-0.18c0.07-0.04,0.4-0.18,0.07-0.05
				c-0.62-0.35-1.23-0.7-1.85-1.05c0,0.01,0.06,0.38,0.03,0.15c-0.03-0.23,0.01,0.1,0.01,0.15c0.02,0.19,0.02,0.39,0.02,0.58
				c0,0.19-0.01,0.39-0.02,0.58c-0.01,0.1-0.02,0.19-0.03,0.29c-0.02,0.19,0.06-0.28,0,0c-0.08,0.38-0.16,0.76-0.28,1.13
				c-0.06,0.18-0.13,0.37-0.2,0.55c0.07-0.18,0.06-0.14-0.01,0.02c-0.04,0.09-0.08,0.18-0.13,0.26c-0.18,0.35-0.38,0.68-0.61,1
				c-0.05,0.06-0.09,0.13-0.14,0.19c0.22-0.29-0.02,0.02-0.06,0.06c-0.11,0.13-0.23,0.26-0.35,0.39c-0.14,0.14-0.28,0.27-0.42,0.4
				c-0.07,0.06-0.15,0.12-0.22,0.19c0.24-0.22,0.04-0.03-0.02,0.01c-0.33,0.24-0.68,0.45-1.05,0.63c0.68,0.18,1.37,0.36,2.05,0.54
				c-0.05-0.09-0.1-0.18-0.15-0.28c-0.02-0.04-0.16-0.32-0.06-0.11c0.1,0.21-0.02-0.06-0.04-0.11c-0.03-0.1-0.07-0.2-0.1-0.3
				c-0.05-0.17-0.09-0.34-0.12-0.51c-0.01-0.06-0.03-0.35-0.02-0.11c0.01,0.25,0-0.06-0.01-0.11c-0.01-0.19-0.02-0.38-0.01-0.58
				c0-0.12-0.03-0.49,0.04-0.58c-0.06,0.08-0.05,0.3,0,0.03c0.02-0.09,0.03-0.17,0.05-0.26c0.04-0.19,0.09-0.38,0.15-0.56
				c0.03-0.08,0.05-0.17,0.08-0.25c0.02-0.05,0.12-0.34,0.04-0.12c-0.08,0.22,0.03-0.06,0.05-0.11c0.05-0.1,0.09-0.19,0.14-0.28
				c0.08-0.15,0.17-0.3,0.27-0.45c0.03-0.05,0.13-0.23,0.18-0.26c-0.11,0.06-0.16,0.19-0.01,0.02c0.18-0.21,0.51-0.68,0.78-0.77
				c-0.13,0.04-0.2,0.14-0.01,0.02c0.07-0.05,0.14-0.1,0.22-0.14c0.18-0.11,0.37-0.21,0.56-0.3c0.71-0.34,0.95-1.41,0.54-2.05
				C160.87,161.68,160.05,161.52,159.29,161.87L159.29,161.87z"/>
		</g>
	</g>
	<g>
		<g>
			<path d="M200.67,174.06c-0.83-0.11-1.62-0.05-2.34,0.43c-0.69,0.47-1.15,1.12-1.45,1.89c-0.55,1.36-0.33,2.94,0.59,4.08
				c1.06,1.33,3.03,1.63,4.59,1.18c1.61-0.46,3-1.63,3.7-3.16c0.94-2.05,0.87-4.26,0.56-6.44c-0.09-0.61-0.85-1.13-1.45-1.1
				c-2.01,0.11-3.73,1.24-4.81,2.93c-0.98,1.54-1.34,3.63-0.63,5.35c0.25,0.6,0.73,1.13,1.45,1.1c0.61-0.03,1.34-0.44,1.45-1.1
				c0.24-1.49,0.48-2.97,0.73-4.46c0.13-0.77-0.2-1.65-1.05-1.85c-0.72-0.16-1.71,0.22-1.85,1.05c-0.24,1.49-0.48,2.97-0.73,4.46
				c0.96,0,1.93,0,2.89,0c-0.13-0.31-0.16-0.66-0.27-0.97c0.12,0.31,0.03,0.22,0.02,0.04c0-0.08-0.01-0.15-0.01-0.23
				c0-0.15,0.06-0.36,0.03-0.5c-0.03,0.23-0.04,0.29-0.02,0.17c0.01-0.05,0.01-0.09,0.02-0.13c0.01-0.07,0.03-0.15,0.05-0.22
				c0.04-0.16,0.09-0.32,0.14-0.48c0.02-0.06,0.15-0.28,0.02-0.08c-0.13,0.22,0.03-0.06,0.06-0.11c0.07-0.15,0.16-0.3,0.24-0.44
				c0.05-0.08,0.26-0.3,0.26-0.38c-0.14,0.18-0.16,0.21-0.06,0.09c0.02-0.02,0.04-0.05,0.06-0.07c0.06-0.07,0.12-0.14,0.19-0.2
				c0.11-0.11,0.22-0.22,0.33-0.32c0.03-0.03,0.07-0.06,0.1-0.09c0.09-0.07,0.05-0.04-0.12,0.09c0.07-0.01,0.17-0.12,0.22-0.16
				c0.13-0.08,0.26-0.16,0.39-0.23c0.05-0.03,0.2-0.08,0.24-0.12c-0.07,0.08-0.31,0.11-0.06,0.03c0.16-0.05,0.32-0.1,0.48-0.14
				c0.2-0.04,0.24,0.04-0.04-0.01c0.08,0.01,0.19-0.02,0.28-0.02c-0.48-0.37-0.96-0.73-1.45-1.1c0.04,0.29,0.01,0.01,0-0.03
				c0.02,0.07,0.02,0.17,0.03,0.24c0.02,0.16,0.03,0.33,0.05,0.49c0.03,0.37,0.05,0.74,0.05,1.11c0,0.33-0.02,0.65-0.05,0.98
				c-0.02,0.3,0.01,0.01,0.01-0.04c0,0.07-0.03,0.17-0.04,0.24c-0.04,0.2-0.08,0.39-0.13,0.59c-0.04,0.15-0.09,0.31-0.14,0.46
				c-0.02,0.06-0.05,0.18-0.08,0.22c0.02-0.03,0.14-0.29,0.01-0.03c-0.07,0.14-0.14,0.29-0.23,0.43c-0.04,0.06-0.08,0.12-0.12,0.19
				c-0.03,0.04-0.2,0.27-0.05,0.08c0.16-0.2-0.05,0.05-0.07,0.07c-0.04,0.05-0.09,0.1-0.13,0.14c-0.09,0.09-0.19,0.18-0.29,0.27
				c-0.17,0.15,0.07-0.02,0.07-0.05c0,0.02-0.16,0.12-0.16,0.11c-0.12,0.08-0.25,0.16-0.38,0.23c-0.06,0.03-0.12,0.06-0.17,0.09
				c-0.01,0.01-0.03,0.01-0.04,0.02c-0.12,0.05-0.12,0.05,0,0c0.03-0.01,0.06-0.03,0.09-0.04c-0.05,0.02-0.09,0.03-0.14,0.05
				c-0.06,0.02-0.12,0.04-0.18,0.06c-0.12,0.04-0.25,0.06-0.37,0.09c-0.06,0.01-0.27,0.05-0.03,0.01c0.25-0.04-0.02,0-0.08,0
				c-0.14,0.01-0.28-0.01-0.42,0c-0.2,0.01,0.31,0.07,0.12,0.02c-0.06-0.01-0.12-0.02-0.18-0.04c-0.12-0.03-0.23-0.07-0.35-0.11
				c-0.18-0.05,0.26,0.15,0.1,0.04c-0.06-0.04-0.14-0.07-0.21-0.11c0,0-0.14-0.11-0.16-0.11c0.11-0.02,0.24,0.21,0.11,0.08
				c-0.07-0.07-0.13-0.15-0.2-0.22c0.28,0.26,0.13,0.16,0.03,0c-0.02-0.03-0.04-0.1-0.07-0.13c0.17,0.17,0.11,0.3,0.05,0.09
				c-0.03-0.09-0.05-0.19-0.07-0.29c-0.05-0.23,0.02,0.16,0.02,0.18c0.01-0.04-0.01-0.1-0.01-0.15c0-0.1,0-0.2,0-0.3
				c0.02-0.39-0.07,0.34,0.01-0.05c0.02-0.11,0.05-0.22,0.09-0.32c0.02-0.05,0.03-0.09,0.05-0.14c0.05-0.17-0.18,0.33-0.05,0.12
				c0.06-0.1,0.13-0.21,0.18-0.31c0.06-0.12,0.16-0.06-0.11,0.13c0.04-0.03,0.08-0.09,0.11-0.13c0.04-0.04,0.08-0.08,0.12-0.12
				c0.16-0.17-0.26,0.16-0.12,0.09c0.04-0.02,0.08-0.05,0.11-0.07c0.21-0.14-0.08,0.07-0.15,0.05c0.03,0.01,0.09-0.04,0.13-0.04
				c0.03-0.01,0.07-0.02,0.1-0.02c0.12-0.03,0.04-0.02-0.23,0.03c0.11,0.02,0.58,0.03,0.04-0.04c0.42,0.06,0.77,0.07,1.16-0.15
				c0.31-0.18,0.61-0.54,0.69-0.9C201.88,175.2,201.5,174.17,200.67,174.06L200.67,174.06z"/>
		</g>
	</g>
	<g>
		<g>
			<path d="M170.71,200.2c-4.06-1.49-8.11-2.98-12.17-4.47c-1.01-0.37-2.26,0.81-1.85,1.85c2.06,5.08,6.01,8.99,11.12,10.99
				c-0.22-0.84-0.44-1.67-0.66-2.51c-3.7,3.3-9.39,4.22-13.92,2.17c-1.44-0.65-3.17,1.11-1.82,2.36c4.87,4.48,11.36,6.96,17.99,6.81
				c1.93-0.05,1.93-3.05,0-3c-5.83,0.14-11.56-1.97-15.87-5.93c-0.61,0.79-1.21,1.57-1.82,2.36c5.83,2.63,12.77,1.62,17.55-2.64
				c0.92-0.82,0.31-2.13-0.66-2.51c-4.02-1.57-7.4-4.89-9.02-8.89c-0.62,0.62-1.23,1.23-1.85,1.85c4.06,1.49,8.11,2.98,12.17,4.47
				C171.72,203.76,172.51,200.87,170.71,200.2L170.71,200.2z"/>
		</g>
	</g>
	<g>
		<g>
			<path d="M118.36,312.49c-11.14-1.76-22.62-3.55-32.81-8.66c-8.81-4.42-15.86-11.39-20.41-20.14c-4.34-8.35-6.25-18-5.12-27.36
				c1.13-9.38,5.57-18.22,11.98-25.1c7.19-7.72,16.77-13.02,27.23-14.61c1.9-0.29,1.09-3.18-0.8-2.89
				c-19.57,2.97-36.6,18.86-40.71,38.26c-4.16,19.63,4.88,41.19,21.84,51.92c11.37,7.19,24.94,9.41,37.99,11.48
				C119.46,315.68,120.27,312.79,118.36,312.49L118.36,312.49z"/>
		</g>
	</g>
	<g>
		<g>
			<path d="M286.04,313.22c19.32-1.8,37.35-11.86,49.76-26.67c6.19-7.4,11.02-15.93,13.89-25.15c3.26-10.47,4.41-22.51,0.32-32.92
				c-4.12-10.5-14.39-19.25-26.18-18.27c-1.91,0.16-1.93,3.16,0,3c9.69-0.81,18.44,5.79,22.5,14.26c4.65,9.71,3.83,21.32,0.97,31.42
				c-4.92,17.42-17.07,32.44-32.52,41.71c-8.74,5.25-18.59,8.67-28.75,9.62C284.13,310.4,284.12,313.4,286.04,313.22L286.04,313.22z
				"/>
		</g>
	</g>
	<g>
		<g>
			<path d="M323.36,210.25c-0.52,0.75-1.05,1.5-1.57,2.25c-0.27,0.39-0.25,0.92-0.08,1.33c0.17,0.41,0.52,0.77,0.97,0.87
				c0.85,0.19,1.71,0.38,2.56,0.57c0.48,0.11,0.92,0.03,1.31-0.27c0.16-0.11,0.29-0.25,0.39-0.42c0.14-0.23,0.2-0.49,0.2-0.76
				c-0.12-0.92-0.23-1.85-0.35-2.77c-0.02-0.13-0.04-0.27-0.05-0.4c-0.05-0.2-0.14-0.37-0.27-0.51c-0.19-0.25-0.47-0.47-0.78-0.54
				c-0.26-0.06-0.53-0.06-0.8,0c-0.4,0.09-0.67,0.38-0.9,0.69c-0.62,0.85-1.24,1.69-1.86,2.54c-0.22,0.29-0.24,0.82-0.15,1.16
				c0.1,0.35,0.36,0.73,0.69,0.9c0.35,0.18,0.77,0.28,1.16,0.15c0.12-0.05,0.24-0.1,0.36-0.15c0.23-0.13,0.4-0.31,0.54-0.54
				c0.62-0.85,1.24-1.69,1.86-2.54c-0.93-0.25-1.86-0.5-2.8-0.76c0.12,0.92,0.23,1.85,0.35,2.77c0.63-0.48,1.27-0.96,1.9-1.45
				c-0.85-0.19-1.71-0.38-2.56-0.57c0.3,0.73,0.6,1.47,0.9,2.2c0.52-0.75,1.05-1.5,1.57-2.25c0.21-0.3,0.25-0.81,0.15-1.16
				c-0.1-0.35-0.36-0.73-0.69-0.9c-0.35-0.18-0.77-0.28-1.16-0.15c-0.12,0.05-0.24,0.1-0.36,0.15
				C323.67,209.84,323.49,210.02,323.36,210.25L323.36,210.25z"/>
		</g>
	</g>
	<g>
		<g>
			<path d="M327.15,31.48c-12.24,16.51-24.48,33.02-36.72,49.53c-1.11,1.49,1.14,2.76,2.36,1.82c10.85-8.43,27.56-8.19,38.19,0.49
				c1.48,1.21,3.62-0.9,2.12-2.12c-12.01-9.82-30.19-10.01-42.43-0.49c0.79,0.61,1.57,1.21,2.36,1.82
				c12.24-16.51,24.48-33.02,36.72-49.53C330.89,31.44,328.29,29.94,327.15,31.48L327.15,31.48z"/>
		</g>
	</g>
	<g>
		<g>
			<path d="M324.15,34.78c12.12-6.24,26.34-7.92,39.58-4.7c1.88,0.46,2.68-2.44,0.8-2.89c-14.04-3.41-29.05-1.61-41.89,5.01
				C320.92,33.07,322.44,35.66,324.15,34.78L324.15,34.78z"/>
		</g>
	</g>
	<g>
		<g>
			<path d="M362.82,28.61c-7.75,17.29-15.5,34.58-23.25,51.88c-0.78,1.75,1.8,3.27,2.59,1.51c7.75-17.29,15.5-34.58,23.25-51.88
				C366.19,28.37,363.61,26.85,362.82,28.61L362.82,28.61z"/>
		</g>
	</g>
	<g>
		<g>
			<path d="M364.5,32.3c6.55-1.76,13.45-2.21,20.16-1.18c3.05,0.47,6.28,1.11,9.12,2.36c2.57,1.14,4.49,2.95,4.53,5.93
				c0.04,3.07-1.12,6.23-1.95,9.15c-0.91,3.22-1.9,6.41-2.96,9.58c-2.13,6.36-4.57,12.61-7.33,18.73
				c-3.05,6.79-6.48,13.41-10.24,19.83c0.79-0.1,1.57-0.2,2.36-0.3c-5.83-5.58-11.96-11.21-19.39-14.59
				c-7.09-3.22-15.44-4.4-22.79-1.34c-1.76,0.73-0.99,3.63,0.8,2.89c15.04-6.24,29.09,5.43,39.26,15.16c0.7,0.67,1.86,0.54,2.36-0.3
				c7.28-12.43,13.29-25.62,17.87-39.28c1.11-3.31,2.14-6.65,3.08-10.02c0.9-3.22,2.16-6.74,1.91-10.12
				c-0.52-6.95-7.82-9.02-13.56-10.17c-7.95-1.6-16.19-1.32-24.02,0.78C361.84,29.9,362.63,32.8,364.5,32.3L364.5,32.3z"/>
		</g>
	</g>
	<g>
		<g>
			<path d="M299.13,77.26c-1.77,2.07-2.73,4.56-2.71,7.3c0.01,1.23,1.24,1.74,2.26,1.3c7.57-3.31,15.86-4.69,24.09-4.16
				c1.93,0.12,1.92-2.88,0-3c-8.79-0.57-17.54,1.04-25.61,4.57c0.75,0.43,1.5,0.86,2.26,1.3c-0.02-1.91,0.58-3.71,1.83-5.18
				C302.49,77.92,300.38,75.79,299.13,77.26L299.13,77.26z"/>
		</g>
	</g>
	<g>
		<g>
			<path d="M399.53,43.07c2.81,0.94,5.16,2.82,6.71,5.35c-0.05-0.39-0.1-0.77-0.15-1.16c-6.02,15.76-13.37,31-21.95,45.52
				c-2.42,4.09-4.93,8.11-7.53,12.08c0.86,0,1.73,0,2.59,0c-7.02-9.95-17.47-17.19-29.3-20.13c-1.87-0.47-2.67,2.43-0.8,2.89
				c11.04,2.75,20.94,9.44,27.51,18.75c0.66,0.94,1.94,0.99,2.59,0c11.46-17.46,21.08-36.09,28.71-55.54
				c0.45-1.14,1.47-2.73,0.93-3.94c-0.47-1.04-1.42-2.05-2.21-2.86c-1.76-1.79-3.92-3.07-6.29-3.86
				C398.49,39.56,397.71,42.46,399.53,43.07L399.53,43.07z"/>
		</g>
	</g>
	<g>
		<g>
			<path d="M96.32,218.44c-2.64-2.1-3.98-5.61-3.06-8.92c0.89-3.19,3.91-5.67,7.21-5.98c-0.13-0.98-0.27-1.96-0.4-2.95
				c-4.92,2.07-8.45,7.13-8.06,12.57c0.38,5.29,4.18,9.93,9.25,11.41c1.86,0.54,2.65-2.35,0.8-2.89c-3.73-1.09-6.77-4.58-7.05-8.52
				c-0.29-4,2.13-8.11,5.86-9.68c0.7-0.29,1.18-0.84,1.07-1.65c-0.09-0.68-0.73-1.37-1.47-1.3c-4.56,0.42-8.62,3.48-10.01,7.89
				c-1.36,4.29,0.23,9.33,3.74,12.12c0.64,0.51,1.5,0.61,2.12,0C96.85,220.04,96.95,218.94,96.32,218.44L96.32,218.44z"/>
		</g>
	</g>
	<g>
		<g>
			<path d="M97.89,205.35c-2.54,3.15-3.04,7.4-1.23,11.03c0.45,0.9,1.69,0.91,2.36,0.3c3.47-3.16,2.86-9.06-0.88-11.71
				c-0.61-0.43-1.74-0.16-2.05,0.54c-1.81,4.02-1.16,8.67,1.74,12c0.82,0.94,2.12,0.29,2.51-0.66c1.24-3.01,0.93-6.49-0.68-9.3
				c-0.44-0.77-1.74-1.07-2.36-0.3c-2.8,3.49-2.74,8.54,0.25,11.9c0.65,0.73,1.89,0.49,2.36-0.3c2.83-4.81,2.63-11.17-0.62-15.73
				c-0.39-0.55-1.01-0.88-1.69-0.69c-0.59,0.16-1.16,0.8-1.1,1.45c0.35,3.68,0.71,7.35,1.06,11.03c0.07,0.74,0.52,1.38,1.3,1.47
				c0.68,0.08,1.52-0.33,1.65-1.07c0.49-2.81,0.97-5.61,1.46-8.42c0.14-0.8-0.21-1.62-1.05-1.85c-0.75-0.2-1.68,0.25-1.85,1.05
				c-1.06,5.04-1.07,10.2-0.02,15.24c0.91-0.39,1.83-0.77,2.74-1.16c-2.53-4.85-2.84-10.86-0.7-15.92c0.32-0.75,0.22-1.61-0.54-2.05
				c-0.63-0.37-1.73-0.21-2.05,0.54c-2.59,6.11-2.38,13.04,0.7,18.95c0.82,1.57,3.07,0.44,2.74-1.16c-0.93-4.5-0.93-9.15,0.02-13.65
				c-0.96-0.27-1.93-0.53-2.89-0.8c-0.49,2.81-0.97,5.61-1.46,8.42c0.98,0.13,1.96,0.27,2.95,0.4c-0.35-3.68-0.71-7.35-1.06-11.03
				c-0.93,0.25-1.86,0.5-2.8,0.76c2.65,3.72,2.95,8.75,0.62,12.71c0.79-0.1,1.57-0.2,2.36-0.3c-1.82-2.04-1.99-5.5-0.25-7.66
				c-0.79-0.1-1.57-0.2-2.36-0.3c1.25,2.18,1.33,4.69,0.38,6.99c0.84-0.22,1.67-0.44,2.51-0.66c-1.95-2.23-2.5-5.65-1.28-8.36
				c-0.68,0.18-1.37,0.36-2.05,0.54c2.23,1.58,2.21,5.23,0.27,7c0.79,0.1,1.57,0.2,2.36,0.3c-1.16-2.32-0.88-5.36,0.76-7.4
				c0.51-0.63,0.62-1.51,0-2.12C99.48,204.82,98.4,204.72,97.89,205.35L97.89,205.35z"/>
		</g>
	</g>
	<g>
		<g>
			<path d="M324.61,203.51c3.92,3.65,5.67,9.36,4.17,14.55c-1.43,4.95-5.65,8.77-10.61,9.95c0.39,0.91,0.77,1.83,1.16,2.74
				c8.72-4.7,12.99-16.11,9.35-25.35c-0.51-1.3-2.47-1.54-2.89,0c-1.12,4.08-2.25,8.16-3.37,12.24c0.98,0.13,1.96,0.27,2.95,0.4
				c0.21-3.96,0.42-7.92,0.63-11.88c0.1-1.83-2.35-1.84-2.95-0.4c-2.31,5.63-4.63,11.25-6.94,16.88c-0.43,1.05,0.84,2.19,1.85,1.85
				c3.19-1.09,5.63-3.7,6.32-7.03c-0.98-0.13-1.96-0.27-2.95-0.4c-0.33,2.69-0.66,5.37-0.99,8.06c-0.23,1.91,2.77,1.89,3,0
				c0.33-2.69,0.66-5.37,0.99-8.06c0.2-1.67-2.61-2.04-2.95-0.4c-0.47,2.28-1.99,4.17-4.22,4.94c0.62,0.62,1.23,1.23,1.85,1.85
				c2.31-5.63,4.63-11.25,6.94-16.88c-0.98-0.13-1.96-0.27-2.95-0.4c-0.21,3.96-0.42,7.92-0.63,11.88c-0.09,1.71,2.5,2.01,2.95,0.4
				c1.12-4.08,2.25-8.16,3.37-12.24c-0.96,0-1.93,0-2.89,0c3.17,8.05-0.33,17.85-7.97,21.96c-1.53,0.83-0.46,3.13,1.16,2.74
				c5.97-1.42,11-6.13,12.71-12.05c1.78-6.17-0.26-13.12-4.94-17.47C325.32,200.08,323.19,202.19,324.61,203.51L324.61,203.51z"/>
		</g>
	</g>
	<g>
		<g>
			<path d="M21.7,51.53c4.33,16.64,8.65,33.28,12.98,49.92c0.49,1.87,3.38,1.08,2.89-0.8c-4.33-16.64-8.65-33.28-12.98-49.92
				C24.11,48.87,21.21,49.66,21.7,51.53L21.7,51.53z"/>
		</g>
	</g>
	<g>
		<g>
			<path d="M23.96,52.56c17.15-6.29,34.31-12.59,51.46-18.88c4.83-1.77,9.67-3.55,14.5-5.32c1.8-0.66,1.02-3.56-0.8-2.89
				c-17.15,6.29-34.31,12.59-51.46,18.88c-4.83,1.77-9.67,3.55-14.5,5.32C21.36,50.32,22.14,53.22,23.96,52.56L23.96,52.56z"/>
		</g>
	</g>
	<g>
		<g>
			<path d="M90.46,30.63c0.69,3.94,4.52,6.8,8.41,6.95c3.99,0.16,7.32-2.92,8.16-6.71c0.47-2.12,0.22-4.36-0.91-6.23
				c-1-1.65-3.59-0.14-2.59,1.51c0.37,0.62,0.52,1,0.67,1.79c0.02,0.08,0.03,0.16,0.04,0.23c0-0.04-0.02-0.18-0.01,0
				c0.02,0.19,0.03,0.37,0.03,0.56c0,0.16,0,0.32-0.01,0.48c0,0.1-0.05,0.57-0.03,0.4c-0.2,1.39-0.74,2.54-1.61,3.46
				c-0.86,0.91-1.98,1.46-3.16,1.52c-1.39,0.07-2.58-0.32-3.79-1.14c-1.21-0.82-2.04-2.08-2.31-3.61c-0.14-0.8-1.12-1.25-1.85-1.05
				C90.66,29.02,90.32,29.83,90.46,30.63L90.46,30.63z"/>
		</g>
	</g>
	<g>
		<g>
			<path d="M105.14,24.86c5.03-2.18,10.05-4.35,15.08-6.53c0.74-0.32,0.91-1.41,0.54-2.05c-0.45-0.77-1.31-0.86-2.05-0.54
				c-5.03,2.18-10.05,4.35-15.08,6.53c-0.74,0.32-0.91,1.41-0.54,2.05C103.53,25.09,104.39,25.18,105.14,24.86L105.14,24.86z"/>
		</g>
	</g>
	<g>
		<g>
			<path d="M38.94,102.22c17.66-5.86,35-12.66,51.93-20.36c4.84-2.2,9.64-4.47,14.41-6.81c1.73-0.85,0.21-3.44-1.51-2.59
				c-16.54,8.12-33.49,15.38-50.8,21.7c-4.91,1.8-9.86,3.52-14.82,5.17C36.32,99.93,37.11,102.83,38.94,102.22L38.94,102.22z"/>
		</g>
	</g>
	<g>
		<g>
			<path d="M104.45,72.47c-0.99-2.84,0.49-6.57,3.49-7.58c2.89-0.97,6.5,0.75,7.46,3.73c0.59,1.83,3.49,1.05,2.89-0.8
				c-1.15-3.54-4.49-5.95-8.17-6.2c-3.8-0.25-7.04,2.3-8.39,5.73c-0.74,1.86-0.83,4.02-0.17,5.92c0.27,0.76,1.03,1.27,1.85,1.05
				C104.14,74.11,104.71,73.24,104.45,72.47L104.45,72.47z"/>
		</g>
	</g>
	<g>
		<g>
			<path d="M118.2,69.88c5.31-1.95,10.62-3.89,15.93-5.84c0.76-0.28,1.28-1.02,1.05-1.85c-0.2-0.73-1.08-1.33-1.85-1.05
				c-5.31,1.95-10.62,3.89-15.93,5.84c-0.76,0.28-1.28,1.02-1.05,1.85C116.56,69.57,117.44,70.16,118.2,69.88L118.2,69.88z"/>
		</g>
	</g>
	<g>
		<g>
			<path d="M121.07,17.78c4.36,14.88,8.72,29.76,13.08,44.64c0.54,1.85,3.44,1.06,2.89-0.8c-4.36-14.88-8.72-29.76-13.08-44.64
				C123.42,15.13,120.53,15.92,121.07,17.78L121.07,17.78z"/>
		</g>
	</g>
	<g>
		<g>
			<path d="M39.93,66.6c2.82-0.94,5.65-1.88,8.47-2.82c0.74-0.25,1.31-1.05,1.05-1.85c-0.24-0.74-1.05-1.31-1.85-1.05
				c-2.82,0.94-5.65,1.88-8.47,2.82c-0.74,0.25-1.31,1.05-1.05,1.85C38.32,66.29,39.13,66.86,39.93,66.6L39.93,66.6z"/>
		</g>
	</g>
	<g>
		<g>
			<path d="M42.79,65.55c1.12,4.27,3.58,8.19,6.97,11.01c0.62,0.52,1.51,0.61,2.12,0c0.53-0.53,0.63-1.6,0-2.12
				c-1.57-1.3-2.83-2.72-3.87-4.35c-1.11-1.75-1.81-3.36-2.33-5.33c-0.21-0.78-1.07-1.26-1.85-1.05
				C43.05,63.92,42.58,64.76,42.79,65.55L42.79,65.55z"/>
		</g>
	</g>
	<g>
		<g>
			<path d="M54.96,60.86c1.25-0.31,2.51-0.63,3.76-0.94c0.76-0.19,1.29-1.09,1.05-1.85c-0.26-0.79-1.03-1.25-1.85-1.05
				c-1.25,0.31-2.51,0.63-3.76,0.94c-0.76,0.19-1.29,1.09-1.05,1.85C53.37,60.6,54.15,61.07,54.96,60.86L54.96,60.86z"/>
		</g>
	</g>
	<g>
		<g>
			<path d="M56.24,64.21c0.03,3.04,2.38,5.99,5.43,6.48c0.41,0.07,0.78,0.07,1.16-0.15c0.31-0.18,0.61-0.54,0.69-0.9
				c0.16-0.72-0.22-1.71-1.05-1.85c-0.38-0.06-0.74-0.17-1.09-0.31c0.12,0.05,0.24,0.1,0.36,0.15c-0.31-0.13-0.6-0.29-0.87-0.47
				c-0.07-0.05-0.17-0.1-0.23-0.17c0.06,0.05,0.13,0.1,0.19,0.15c-0.04-0.03-0.07-0.06-0.11-0.09c-0.13-0.11-0.25-0.22-0.37-0.34
				c-0.12-0.12-0.22-0.25-0.34-0.37c-0.18-0.21,0.22,0.31,0.06,0.08c-0.06-0.08-0.11-0.15-0.16-0.23c-0.18-0.28-0.34-0.57-0.47-0.88
				c0.05,0.12,0.1,0.24,0.15,0.36c-0.17-0.42-0.29-0.85-0.35-1.3c0.02,0.13,0.04,0.27,0.05,0.4c-0.02-0.19-0.03-0.38-0.04-0.57
				c-0.01-0.78-0.68-1.54-1.5-1.5C56.93,62.74,56.23,63.37,56.24,64.21L56.24,64.21z"/>
		</g>
	</g>
	<g>
		<g>
			<path d="M69.93,58.46c-2.61-0.68-5.49,1.15-6.09,3.77c-0.29,1.23-0.07,2.57,0.68,3.6c0.72,0.98,1.74,1.7,2.92,2.03
				c1.28,0.35,2.74,0.22,3.86-0.52c0.65-0.43,0.99-1.35,0.54-2.05c-0.42-0.65-1.35-1-2.05-0.54c-0.08,0.05-0.16,0.11-0.25,0.15
				c-0.06,0.03-0.34,0.16-0.08,0.05c0.27-0.12-0.07,0.01-0.13,0.03c-0.09,0.03-0.19,0.04-0.28,0.07c-0.32,0.08,0.37-0.02,0.04-0.01
				c-0.08,0-0.17,0.01-0.25,0.01c-0.1,0-0.19,0-0.29-0.01c-0.03,0-0.12,0-0.14-0.01c0.01,0.01,0.39,0.07,0.18,0.02
				c-0.19-0.04-0.38-0.08-0.57-0.14c-0.06-0.02-0.36-0.14-0.09-0.03c0.27,0.12-0.09-0.05-0.15-0.08c-0.15-0.08-0.29-0.17-0.43-0.27
				c-0.19-0.12,0.12,0.1,0.13,0.1c-0.03-0.03-0.08-0.06-0.11-0.09c-0.08-0.07-0.16-0.15-0.24-0.22c-0.06-0.06-0.11-0.12-0.17-0.19
				c-0.15-0.17,0.1,0.12,0.1,0.13c-0.02-0.04-0.06-0.08-0.08-0.12c-0.05-0.07-0.09-0.14-0.13-0.21c-0.02-0.04-0.04-0.08-0.07-0.13
				c-0.12-0.23,0.02,0.1,0.05,0.13c-0.1-0.08-0.11-0.41-0.15-0.52c-0.04-0.14,0.02,0.21,0.02,0.2c0-0.05-0.01-0.11-0.01-0.16
				c-0.01-0.12,0.01-0.24,0.01-0.37c0-0.19-0.07,0.34-0.02,0.16c0.01-0.04,0.01-0.08,0.02-0.12c0.02-0.11,0.05-0.21,0.08-0.31
				c0.05-0.15,0.21-0.39-0.01-0.02c0.05-0.09,0.1-0.2,0.15-0.29c0.05-0.1,0.12-0.19,0.18-0.28c0.14-0.21-0.23,0.28-0.01,0.01
				c0.14-0.17,0.3-0.33,0.47-0.47c0.05-0.04,0.19-0.17,0.01-0.01c-0.19,0.17,0,0.01,0.05-0.03c0.1-0.07,0.21-0.13,0.32-0.19
				c0.04-0.02,0.07-0.04,0.11-0.06c0.13-0.06,0.31-0.08-0.06,0.02c0.1-0.03,0.21-0.07,0.31-0.1c0.12-0.03,0.24-0.05,0.36-0.08
				c0.15-0.04-0.21,0.03-0.2,0.03c0.06,0.01,0.18-0.01,0.24-0.01c0.1,0,0.22,0.03,0.33,0.01c-0.27,0.04-0.3-0.05-0.15-0.02
				c0.08,0.02,0.16,0.03,0.24,0.06c0.76,0.2,1.66-0.25,1.85-1.05C71.16,59.52,70.74,58.67,69.93,58.46L69.93,58.46z"/>
		</g>
	</g>
	<g>
		<g>
			<path d="M75.88,54.62c1.25,2.51,2.51,5.02,3.76,7.53c0.35,0.7,1.4,0.96,2.05,0.54c0.72-0.46,0.91-1.3,0.54-2.05
				c-1.25-2.51-2.51-5.02-3.76-7.53c-0.35-0.7-1.4-0.96-2.05-0.54C75.69,53.03,75.5,53.86,75.88,54.62L75.88,54.62z"/>
		</g>
	</g>
	<g>
		<g>
			<path d="M87.7,51.62c-3.14,1.47-5.77,4.15-7.18,7.32c-0.2,0.46-0.28,0.86-0.08,1.33c0.17,0.39,0.52,0.79,0.97,0.87
				c1.89,0.33,3.77,0.65,5.66,0.98c0.77,0.13,1.65-0.21,1.85-1.05c0.17-0.73-0.22-1.7-1.05-1.85c-1.89-0.33-3.77-0.65-5.66-0.98
				c0.3,0.73,0.6,1.47,0.9,2.2c0.32-0.73,0.71-1.43,1.15-2.1c0.1-0.15,0.2-0.3,0.31-0.44c0.09-0.12,0.14-0.19,0.02-0.03
				c0.06-0.08,0.12-0.16,0.19-0.23c0.25-0.31,0.52-0.61,0.8-0.89c0.27-0.27,0.54-0.53,0.83-0.78c0.15-0.13,0.31-0.26,0.46-0.38
				c-0.16,0.13-0.09,0.07,0.03-0.02c0.08-0.06,0.16-0.12,0.24-0.18c0.65-0.46,1.35-0.86,2.07-1.2c0.71-0.33,0.95-1.41,0.54-2.05
				C89.28,51.43,88.47,51.27,87.7,51.62L87.7,51.62z"/>
		</g>
	</g>
	<g>
		<g>
			<path d="M93.66,55.64c0.37,0.51,0.78,0.89,1.37,1.14c0.45,0.19,0.95,0.29,1.45,0.25c1.01-0.09,1.96-0.49,2.68-1.21
				c0.83-0.83,1.18-1.94,0.97-3.08c-0.18-1.01-0.89-1.86-1.74-2.39c-1.71-1.05-4.22-0.83-5.5,0.78c-1.52,1.91-1.29,4.61,0.23,6.45
				c1.67,2.01,4.84,2.37,7.15,1.39c0.38-0.16,0.68-0.32,0.9-0.69c0.19-0.32,0.27-0.8,0.15-1.16c-0.12-0.36-0.34-0.71-0.69-0.9
				c-0.33-0.17-0.79-0.3-1.16-0.15c-0.38,0.16-0.77,0.28-1.18,0.36c-0.04,0.01-0.08,0.01-0.13,0.02c-0.25,0.05,0.14-0.01,0.15-0.02
				c-0.08,0.03-0.22,0.02-0.3,0.03c-0.21,0.02-0.43,0.02-0.64,0.01c-0.1,0-0.2-0.01-0.3-0.02c-0.34-0.03,0.27,0.05,0.02,0
				c-0.21-0.04-0.41-0.08-0.61-0.15c-0.09-0.03-0.18-0.06-0.28-0.1c-0.25-0.09,0.29,0.14,0.05,0.02c-0.2-0.1-0.39-0.21-0.58-0.33
				c-0.03-0.02-0.07-0.05-0.1-0.07c-0.13-0.09,0.15,0.12,0.14,0.11c-0.06-0.07-0.14-0.12-0.21-0.19c-0.06-0.06-0.12-0.12-0.18-0.19
				c-0.02-0.02-0.08-0.08-0.1-0.11c0.01,0.02,0.21,0.3,0.1,0.13c-0.1-0.15-0.19-0.29-0.27-0.45c-0.03-0.06-0.16-0.34-0.05-0.09
				c0.11,0.26-0.02-0.07-0.04-0.14c-0.05-0.17-0.09-0.34-0.13-0.51c-0.07-0.31,0.02,0.32,0.01,0.07c-0.01-0.1-0.01-0.2-0.02-0.3
				c0-0.09,0-0.17,0.01-0.26c0-0.04,0.01-0.07,0.01-0.11c0.01-0.24-0.03,0.19-0.03,0.18c-0.03-0.14,0.08-0.4,0.12-0.53
				c0.01-0.03,0.02-0.07,0.04-0.1c0.07-0.23-0.07,0.16-0.07,0.16c0-0.06,0.08-0.17,0.11-0.23c0.04-0.07,0.09-0.14,0.13-0.22
				c0.03-0.04,0.12-0.16-0.03,0.03c-0.16,0.21-0.02,0.03,0.02-0.02c0.06-0.06,0.12-0.12,0.18-0.18c0.12-0.11,0.28-0.14-0.08,0.06
				c0.05-0.03,0.1-0.07,0.16-0.1c0.06-0.04,0.38-0.18,0.1-0.06c-0.27,0.11-0.01,0.01,0.05-0.01c0.06-0.02,0.12-0.04,0.18-0.05
				c0.05-0.01,0.2-0.02,0.25-0.05c0,0-0.37,0.03-0.24,0.03c0.05,0,0.11-0.01,0.16-0.01c0.14-0.01,0.27,0,0.41,0.01
				c0.31,0.02-0.34-0.07-0.12-0.02c0.08,0.02,0.16,0.03,0.25,0.05c0.07,0.02,0.14,0.04,0.21,0.06c0.04,0.01,0.08,0.03,0.12,0.04
				c0.12,0.04-0.22-0.09-0.21-0.09c0.02,0.06,0.34,0.18,0.41,0.22c0.03,0.02,0.07,0.05,0.1,0.07c0.1,0.06-0.18-0.14-0.18-0.14
				c0,0.03,0.13,0.11,0.16,0.14c0.03,0.03,0.11,0.15,0.14,0.15c-0.01,0-0.23-0.33-0.13-0.16c0.02,0.03,0.05,0.07,0.07,0.1
				c0.04,0.06,0.06,0.13,0.1,0.18c0.07,0.09-0.09-0.21-0.09-0.22c0,0.01,0.03,0.09,0.04,0.11c0.02,0.07,0.04,0.14,0.06,0.21
				c0.07,0.29-0.01-0.38-0.02-0.1c0,0.05-0.02,0.16-0.01,0.2c0,0.01,0.07-0.37,0.03-0.26c-0.01,0.04-0.01,0.07-0.02,0.11
				c-0.02,0.06-0.04,0.13-0.06,0.19c-0.02,0.05-0.07,0.18,0.03-0.07c0.11-0.26,0.03-0.09,0-0.03c-0.04,0.07-0.08,0.13-0.12,0.2
				c-0.03,0.05-0.11,0.15,0.05-0.06c0.17-0.22,0.05-0.07,0-0.02c-0.05,0.06-0.11,0.11-0.17,0.17c-0.03,0.03-0.06,0.05-0.09,0.08
				c-0.14,0.13,0.15-0.13,0.16-0.13c-0.08,0-0.32,0.2-0.41,0.24c-0.03,0.01-0.09,0.03-0.11,0.05c0.01-0.01,0.37-0.14,0.19-0.09
				c-0.07,0.02-0.15,0.05-0.22,0.07c-0.07,0.02-0.15,0.03-0.23,0.05c0.49-0.12,0.27-0.03,0.12-0.03c-0.08,0-0.17-0.01-0.25-0.01
				c-0.11,0.01,0.26,0.03,0.26,0.04c-0.01-0.01-0.12-0.02-0.13-0.03c-0.07-0.02-0.33-0.12-0.05,0c0.28,0.12,0.02,0-0.04-0.04
				c-0.23-0.13,0.27,0.26,0.08,0.06c-0.1-0.1-0.28-0.35,0.02,0.06c-0.24-0.32-0.49-0.58-0.9-0.69c-0.36-0.1-0.84-0.05-1.16,0.15
				C93.58,53.99,93.17,54.96,93.66,55.64L93.66,55.64z"/>
		</g>
	</g>
	<g>
		<g>
			<path d="M105.8,50.6c3.45-0.94,6.9-1.88,10.35-2.82c1.86-0.51,1.07-3.4-0.8-2.89c-3.45,0.94-6.9,1.88-10.35,2.82
				C103.14,48.21,103.93,51.11,105.8,50.6L105.8,50.6z"/>
		</g>
	</g>
	<g>
		<g>
			<path d="M202.53,174.11c-0.42,1.05-0.84,2.1-1.27,3.15c-0.14,0.34-0.02,0.86,0.15,1.16c0.18,0.31,0.54,0.61,0.9,0.69
				c0.38,0.09,0.82,0.07,1.16-0.15c0.1-0.08,0.2-0.16,0.3-0.23c0.19-0.19,0.31-0.41,0.39-0.66c0.42-1.05,0.84-2.1,1.27-3.15
				c0.14-0.34,0.02-0.86-0.15-1.16c-0.18-0.31-0.54-0.61-0.9-0.69c-0.38-0.09-0.81-0.07-1.16,0.15c-0.1,0.08-0.2,0.16-0.3,0.23
				C202.73,173.64,202.61,173.86,202.53,174.11L202.53,174.11z"/>
		</g>
	</g>
	<g>
		<g>
			<path d="M108.08,46.85c1.33,2.92,2.65,5.83,3.98,8.75c0.33,0.72,1.42,0.95,2.05,0.54c0.74-0.48,0.89-1.29,0.54-2.05
				c-1.33-2.92-2.65-5.83-3.98-8.75c-0.33-0.72-1.42-0.95-2.05-0.54C107.88,45.27,107.73,46.08,108.08,46.85L108.08,46.85z"/>
		</g>
	</g>
	<g>
		<g>
			<path d="M339.79,29.38c-6.12,13.12-12.97,25.9-20.51,38.25c-1.01,1.65,1.58,3.16,2.59,1.51c7.55-12.36,14.4-25.13,20.51-38.25
				C343.19,29.16,340.6,27.63,339.79,29.38L339.79,29.38z"/>
		</g>
	</g>
	<g>
		<g>
			<path d="M326.87,43.98c7.73-0.03,15.44-0.67,23.08-1.89c1.9-0.3,1.09-3.19-0.8-2.89c-7.37,1.18-14.82,1.76-22.28,1.78
				C324.94,40.98,324.93,43.98,326.87,43.98L326.87,43.98z"/>
		</g>
	</g>
	<g>
		<g>
			<path d="M315.73,61.42c10.27-1.65,20.63-2.66,31.02-3.06c1.92-0.07,1.93-3.07,0-3c-10.66,0.41-21.28,1.47-31.82,3.17
				C313.03,58.83,313.84,61.72,315.73,61.42L315.73,61.42z"/>
		</g>
	</g>
	<g>
		<g>
			<path d="M378.85,30.62c-7.46,15.36-14.91,30.71-22.37,46.07c-0.84,1.73,1.75,3.25,2.59,1.51c7.46-15.36,14.91-30.71,22.37-46.07
				C382.28,30.4,379.69,28.88,378.85,30.62L378.85,30.62z"/>
		</g>
	</g>
	<g>
		<g>
			<path d="M360.29,45.42c10.86,1.22,21.73,2.44,32.59,3.66c1.92,0.22,1.9-2.79,0-3c-10.86-1.22-21.73-2.44-32.59-3.66
				C358.37,42.2,358.39,45.2,360.29,45.42L360.29,45.42z"/>
		</g>
	</g>
	<g>
		<g>
			<path d="M357.08,59.87c11.16,2.77,22.09,6.41,32.66,10.93c1.76,0.75,3.29-1.83,1.51-2.59c-10.82-4.63-21.96-8.4-33.38-11.24
				C356.01,56.51,355.21,59.4,357.08,59.87L357.08,59.87z"/>
		</g>
	</g>
	<g>
		<g>
			<path d="M317.32,324.23c-6.15,5.72-12.31,11.45-18.46,17.17c-0.45,0.42-0.6,1.29-0.23,1.82c3,4.27,6.01,8.54,9.01,12.81
				c1.1,1.57,3.7,0.07,2.59-1.51c-3-4.27-6.01-8.54-9.01-12.81c-0.08,0.61-0.16,1.21-0.23,1.82c6.15-5.72,12.31-11.45,18.46-17.17
				C320.86,325.04,318.73,322.92,317.32,324.23L317.32,324.23z"/>
		</g>
	</g>
	<g>
		<g>
			<path d="M308.2,344.13c7.28,0.73,14.88,0.8,21.88-1.61c6.09-2.09,11.55-6.18,14.64-11.91c1.66-3.08,2.54-6.53,2.36-10.03
				c-0.06-1.25-1.62-2.04-2.56-1.06c-1.35,1.4-2.7,2.79-4.05,4.19c-0.68,0.7-0.53,1.85,0.3,2.36c8.37,5.08,19.16,5.24,27.87,0.9
				c8.65-4.31,13.99-13.1,14.9-22.6c0.51-5.34-0.51-10.76-2.97-15.53c-0.88-1.72-3.47-0.2-2.59,1.51
				c3.89,7.56,3.45,16.98-0.68,24.35c-4.28,7.62-12.44,12.1-21.1,12.35c-4.89,0.14-9.72-1.04-13.92-3.59c0.1,0.79,0.2,1.57,0.3,2.36
				c1.35-1.4,2.7-2.79,4.05-4.19c-0.85-0.35-1.71-0.71-2.56-1.06c0.38,7.37-4.56,13.85-10.8,17.29c-7.56,4.18-16.71,4.1-25.07,3.26
				C306.28,340.94,306.29,343.94,308.2,344.13L308.2,344.13z"/>
		</g>
	</g>
	<g>
		<g>
			<path d="M384.75,244.73c-4.55,3.33-9.09,6.67-13.64,10c-0.65,0.48-0.98,1.3-0.54,2.05c0.38,0.64,1.4,1.02,2.05,0.54
				c4.55-3.33,9.09-6.67,13.64-10c0.65-0.48,0.98-1.3,0.54-2.05C386.43,244.62,385.41,244.24,384.75,244.73L384.75,244.73z"/>
		</g>
	</g>
	<g>
		<g>
			<path d="M379.67,254.96c1.21,2.12,2.42,4.24,3.64,6.36c0.39,0.68,1.38,0.97,2.05,0.54c0.69-0.44,0.95-1.32,0.54-2.05
				c-1.21-2.12-2.42-4.24-3.64-6.36c-0.39-0.68-1.38-0.97-2.05-0.54C379.51,253.35,379.25,254.23,379.67,254.96L379.67,254.96z"/>
		</g>
	</g>
	<g>
		<g>
			<path d="M391.33,247.44c-1.52,5.15-3.03,10.3-4.55,15.46c-0.55,1.86,2.35,2.65,2.89,0.8c1.52-5.15,3.03-10.3,4.55-15.46
				C394.77,246.38,391.88,245.59,391.33,247.44L391.33,247.44z"/>
		</g>
	</g>
	<g>
		<g>
			<path d="M375.08,263.28c0.34,2.51,1.54,4.81,3.51,6.44c1.94,1.6,4.38,2.58,6.92,2.43c0.78-0.05,1.54-0.66,1.5-1.5
				c-0.03-0.77-0.66-1.55-1.5-1.5c-0.25,0.01-0.5,0.02-0.76,0.01c-0.13,0-0.25-0.01-0.38-0.02c-0.06,0-0.46-0.07-0.1,0
				c-0.5-0.08-0.98-0.19-1.46-0.36c-0.12-0.04-0.24-0.09-0.35-0.13c-0.3-0.11,0.21,0.11-0.1-0.05c-0.21-0.1-0.41-0.2-0.62-0.31
				c-0.22-0.12-0.43-0.26-0.64-0.4c-0.1-0.07-0.2-0.15-0.31-0.22c-0.09-0.06-0.07-0.05,0.05,0.04c-0.05-0.04-0.1-0.08-0.15-0.12
				c-0.37-0.31-0.72-0.64-1.04-1.01c-0.08-0.09-0.16-0.19-0.24-0.29c-0.26-0.32,0.17,0.24-0.07-0.1c-0.14-0.21-0.28-0.41-0.41-0.63
				c-0.13-0.21-0.25-0.44-0.36-0.66c-0.03-0.07-0.18-0.41-0.05-0.1c-0.05-0.12-0.09-0.23-0.13-0.35c-0.08-0.22-0.14-0.44-0.2-0.66
				c-0.03-0.12-0.06-0.24-0.08-0.37c-0.02-0.07-0.09-0.53-0.04-0.16c-0.1-0.77-0.62-1.54-1.5-1.5
				C375.85,261.81,374.97,262.44,375.08,263.28L375.08,263.28z"/>
		</g>
	</g>
	<g>
		<g>
			<path d="M403.04,244.7c-0.3,2.12-0.61,4.24-0.91,6.36c-0.06,0.42-0.07,0.78,0.15,1.16c0.18,0.31,0.54,0.61,0.9,0.69
				c0.71,0.16,1.73-0.22,1.85-1.05c0.3-2.12,0.61-4.24,0.91-6.36c0.06-0.42,0.07-0.78-0.15-1.16c-0.18-0.31-0.54-0.61-0.9-0.69
				C404.17,243.49,403.16,243.87,403.04,244.7L403.04,244.7z"/>
		</g>
	</g>
	<g>
		<g>
			<path d="M397.51,254.08c1.23,1.54,2.47,3.08,3.7,4.62c0.49-0.84,0.97-1.67,1.46-2.51c-2.49-0.4-5.14,0-7.21,1.53
				c-2.1,1.55-3.18,3.9-2.77,6.5c0.35,2.23,1.93,4.36,4.15,4.99c2.21,0.62,4.4-0.51,5.48-2.47c1.19-2.16,0.98-4.95-1.22-6.35
				c-0.12,0.91-0.24,1.83-0.36,2.74c1.99-0.27,3.99-0.54,5.98-0.81c0.8-0.11,1.24-1.14,1.05-1.85c-0.24-0.87-1.04-1.16-1.85-1.05
				c-1.99,0.27-3.99,0.54-5.98,0.81c-1.37,0.19-1.33,2.12-0.36,2.74c0.15,0.09,0.22,0.15,0.29,0.27c0.05,0.08,0.16,0.37,0.09,0.14
				c0.03,0.09,0.12,0.56,0.09,0.29c0.02,0.14,0.01,0.29,0.01,0.43c0,0.27,0.04-0.08-0.02,0.19c-0.03,0.15-0.07,0.29-0.11,0.44
				c-0.02,0.07-0.05,0.14-0.07,0.22c-0.09,0.24,0.08-0.16-0.03,0.06c-0.25,0.51-0.56,0.91-0.88,1.11c-0.37,0.23-0.27,0.19-0.66,0.27
				c-0.18,0.03,0,0,0.03,0c-0.08,0-0.16,0.01-0.23,0c-0.25-0.02-0.17,0-0.37-0.05c-1.11-0.3-1.85-1.39-2.09-2.65
				c-0.1-0.51-0.07-1.17,0.14-1.74c0.21-0.57,0.72-1.24,1.28-1.68c1.31-1.04,3.19-1.43,4.82-1.17c1.52,0.24,2.43-1.3,1.46-2.51
				c-1.23-1.54-2.47-3.08-3.7-4.62c-0.51-0.63-1.59-0.53-2.12,0C396.89,252.59,397.01,253.45,397.51,254.08L397.51,254.08z"/>
		</g>
	</g>
	<g>
		<g>
			<path d="M399.66,266.56c2.12,0.61,4.24,1.21,6.36,1.82c0.75,0.22,1.67-0.26,1.85-1.05c0.18-0.8-0.24-1.61-1.05-1.85
				c-2.12-0.61-4.24-1.21-6.36-1.82c-0.75-0.22-1.67,0.26-1.85,1.05C398.43,265.52,398.85,266.33,399.66,266.56L399.66,266.56z"/>
		</g>
	</g>
	<g>
		<g>
			<path d="M412.03,257.36c-1.83,4.84-3.67,9.69-5.5,14.53c-0.29,0.76,0.32,1.64,1.05,1.85c0.84,0.23,1.56-0.29,1.85-1.05
				c1.83-4.84,3.67-9.69,5.5-14.53c0.29-0.76-0.32-1.64-1.05-1.85C413.03,256.08,412.32,256.6,412.03,257.36L412.03,257.36z"/>
		</g>
	</g>
	<g>
		<g>
			<path d="M415.88,262.9c-1.82,4.55-3.64,9.09-5.46,13.64c-0.3,0.75,0.33,1.65,1.05,1.85c0.85,0.23,1.54-0.29,1.85-1.05
				c1.82-4.55,3.64-9.09,5.46-13.64c0.3-0.75-0.33-1.65-1.05-1.85C416.87,261.62,416.18,262.14,415.88,262.9L415.88,262.9z"/>
		</g>
	</g>
	<g>
		<g>
			<path d="M426.35,261.44c-0.27,2.82,1.93,5.74,4.74,6.2c2.92,0.48,5.92-1.38,6.7-4.26c0.18-0.67-0.13-1.32-0.69-1.69
				c-1.75-1.17-3.5-2.34-5.25-3.51c-0.65-0.44-1.69-0.15-2.05,0.54c-0.4,0.75-0.16,1.59,0.54,2.05c1.75,1.17,3.5,2.34,5.25,3.51
				c-0.23-0.56-0.46-1.13-0.69-1.69c-0.03,0.11-0.07,0.22-0.1,0.33c-0.08,0.29,0.12-0.23-0.05,0.12c-0.05,0.1-0.11,0.2-0.17,0.3
				c-0.04,0.07-0.3,0.41-0.06,0.12c-0.14,0.18-0.3,0.35-0.47,0.51c-0.04,0.04-0.35,0.28-0.05,0.06c-0.09,0.07-0.19,0.14-0.28,0.2
				c-0.2,0.13-0.4,0.23-0.61,0.33c0.33-0.16,0.01-0.01-0.07,0.02c-0.13,0.04-0.26,0.08-0.39,0.11c-0.04,0.01-0.43,0.09-0.2,0.05
				c0.23-0.04-0.21,0.01-0.26,0.01c-0.12,0-0.23-0.01-0.34-0.01c-0.31,0,0.27,0.07-0.06,0c-0.23-0.05-0.45-0.12-0.68-0.19
				c0.34,0.11,0.01,0-0.07-0.04c-0.1-0.05-0.21-0.11-0.3-0.17c-0.04-0.02-0.39-0.28-0.23-0.15c0.16,0.13-0.13-0.12-0.16-0.15
				c-0.09-0.08-0.17-0.16-0.25-0.25c-0.06-0.06-0.3-0.4-0.1-0.11c-0.13-0.19-0.26-0.39-0.37-0.6c-0.03-0.06-0.16-0.41-0.04-0.07
				c-0.04-0.11-0.08-0.22-0.12-0.33c-0.03-0.11-0.06-0.23-0.09-0.34c-0.04-0.17-0.04-0.32-0.02-0.06c-0.02-0.28-0.02-0.54,0-0.82
				c0.08-0.78-0.74-1.53-1.5-1.5C426.97,259.98,426.43,260.6,426.35,261.44L426.35,261.44z"/>
		</g>
	</g>
	<g>
		<g>
			<path d="M418.49,273.47c3.34,1.5,6.68,3.01,10.02,4.51c0.74,0.33,1.61,0.21,2.05-0.54c0.38-0.64,0.2-1.72-0.54-2.05
				c-3.34-1.5-6.68-3.01-10.02-4.51c-0.74-0.33-1.61-0.21-2.05,0.54C417.57,272.06,417.74,273.14,418.49,273.47L418.49,273.47z"/>
		</g>
	</g>
	<g>
		<g>
			<path d="M423.31,274.36c-2.73,3.64-5.46,7.27-8.18,10.91c-0.49,0.65-0.1,1.68,0.54,2.05c0.77,0.45,1.56,0.11,2.05-0.54
				c2.73-3.64,5.46-7.27,8.18-10.91c0.49-0.65,0.1-1.68-0.54-2.05C424.59,273.37,423.8,273.71,423.31,274.36L423.31,274.36z"/>
		</g>
	</g>
	<g>
		<g>
			<path d="M421.48,283.84c1.82,0.61,3.64,1.21,5.46,1.82c0.74,0.25,1.67-0.29,1.85-1.05c0.19-0.83-0.25-1.58-1.05-1.85
				c-1.82-0.61-3.64-1.21-5.46-1.82c-0.74-0.25-1.67,0.29-1.85,1.05C420.24,282.82,420.68,283.57,421.48,283.84L421.48,283.84z"/>
		</g>
	</g>
	<g>
		<g>
			<path d="M432.93,278.27c-1.8,5.16-3.6,10.32-5.4,15.48c-0.27,0.76,0.3,1.64,1.05,1.85c0.83,0.23,1.58-0.28,1.85-1.05
				c1.8-5.16,3.6-10.32,5.4-15.48c0.27-0.76-0.3-1.64-1.05-1.85C433.94,277,433.19,277.51,432.93,278.27L432.93,278.27z"/>
		</g>
	</g>
	<g>
		<g>
			<path d="M418.82,293.96c2.29,5.86,10.19,8.64,15.5,5c0.67-0.46,0.97-1.32,0.54-2.05c-0.39-0.66-1.38-1-2.05-0.54
				c-1.92,1.32-4.15,1.51-6.35,0.85c-2.04-0.61-4-2.14-4.75-4.05c-0.29-0.75-1.01-1.28-1.85-1.05
				C419.15,292.32,418.52,293.2,418.82,293.96L418.82,293.96z"/>
		</g>
	</g>
</g>
<g id="Layer_2">
</g>
</svg>
